<svg width="43" height="40" viewBox="0 0 43 40" fill="none" xmlns="http://www.w3.org/2000/svg">
<path d="M33.6251 39.9871C33.2438 39.9871 32.9101 39.8918 32.5765 39.7011L21.8529 32.7427L11.1293 39.7011C10.4621 40.1301 9.6042 40.0824 8.98462 39.6535C8.36503 39.1769 8.07907 38.3666 8.26971 37.6041L11.6536 25.689L1.59725 17.2054C1.02533 16.7288 0.787019 15.9186 1.02532 15.156C1.26362 14.4411 1.93087 13.9168 2.69344 13.8215L14.7515 12.9637L20.1848 1.0962C20.5184 0.428955 21.1857 -1.16358e-05 21.9006 -1.16358e-05C22.6632 -1.16358e-05 23.3304 0.428955 23.6164 1.0962L29.0497 12.9637L41.1078 13.8215C41.8703 13.8692 42.5376 14.3935 42.7759 15.156C43.0142 15.8709 42.7759 16.6811 42.2039 17.2054L32.1476 25.689L35.5315 37.6041C35.7698 38.3666 35.4838 39.1769 34.8166 39.6535C34.4353 39.8441 34.054 39.9871 33.6251 39.9871ZM21.8529 28.5486C22.2342 28.5486 22.5678 28.6439 22.9015 28.8345L30.4318 33.6959L28.0964 25.4507C27.9058 24.7358 28.1441 23.9732 28.716 23.4966L36.1034 17.2531L27.6198 16.6335C26.9049 16.5858 26.333 16.1569 25.9994 15.5373L21.8529 6.43414L17.7065 15.5373C17.4205 16.1569 16.8009 16.5858 16.086 16.6335L7.60247 17.2531L14.9898 23.4966C15.5618 23.9732 15.8001 24.7358 15.6094 25.4507L13.2741 33.6959L20.8044 28.8345C21.138 28.6439 21.4716 28.5486 21.8529 28.5486Z" fill="#6A6B6C"/>
</svg>
