<svg width="42" height="40" viewBox="0 0 42 40" fill="none" xmlns="http://www.w3.org/2000/svg">
<path d="M32.6915 39.9871C32.3102 39.9871 31.9766 39.8918 31.6429 39.7011L20.9193 32.7427L10.1957 39.7011C9.5285 40.1301 8.67061 40.0824 8.05102 39.6535C7.43144 39.1769 7.14548 38.3666 7.33612 37.6041L10.72 25.689L0.663658 17.2054C0.0917334 16.7288 -0.146575 15.9186 0.0917276 15.156C0.33003 14.4411 0.997276 13.9168 1.75984 13.8215L13.8179 12.9637L19.2512 1.0962C19.5848 0.428955 20.2521 -1.16358e-05 20.967 -1.16358e-05C21.7296 -1.16358e-05 22.3968 0.428955 22.6828 1.0962L28.1161 12.9637L40.1742 13.8215C40.9367 13.8692 41.604 14.3935 41.8423 15.156C42.0806 15.8709 41.8423 16.6811 41.2703 17.2054L31.214 25.689L34.5979 37.6041C34.8362 38.3666 34.5502 39.1769 33.883 39.6535C33.5017 39.8441 33.1204 39.9871 32.6915 39.9871ZM20.9193 28.5486C21.3006 28.5486 21.6342 28.6439 21.9679 28.8345L29.4982 33.6959L27.1629 25.4507C26.9722 24.7358 27.2105 23.9732 27.7824 23.4966L35.1698 17.2531L26.6863 16.6335C25.9713 16.5858 25.3994 16.1569 25.0658 15.5373L20.9193 6.43414L16.7729 15.5373C16.4869 16.1569 15.8673 16.5858 15.1524 16.6335L6.66887 17.2531L14.0562 23.4966C14.6282 23.9732 14.8665 24.7358 14.6758 25.4507L12.3405 33.6959L19.8708 28.8345C20.2044 28.6439 20.5381 28.5486 20.9193 28.5486Z" fill="#FD6649"/>
</svg>
